<svg id="Layer_1" data-name="Layer 1" xmlns="http://www.w3.org/2000/svg" viewBox="0 0 106.46 152.59"><defs><style>.cls-1{fill:#6887f1;}.cls-2{fill:#f0bd6a;}.cls-3{fill:none;stroke:#f0bd6a;stroke-miterlimit:10;}.cls-4{fill:#f0be66;}</style></defs><title>bab vector</title><path class="cls-1" d="M367.83,244.13h22.72V221.41H415V198H389.15a21,21,0,0,0-21.32,19.22Z" transform="translate(-367.83 -174.14)"/><polygon class="cls-1" points="83.01 152.59 106.25 152.59 106.25 84.08 83.01 84.08 83.01 106.92 59.77 106.92 59.77 129.52 83.01 129.52 83.01 152.59"/><path class="cls-2" d="M402.67,273.61,415,262V248.68a5,5,0,0,1,10,0v12.46l12.58,12.47V248.68a16.62,16.62,0,0,0-3.73-12.12c-5.22-6.13-12.94-5.66-13.75-5.59a17.5,17.5,0,0,0-17.47,17.94Z" transform="translate(-367.83 -174.14)"/><path class="cls-3" d="M399.17,273.61V246.35a22.78,22.78,0,0,1,21-19.34,21.8,21.8,0,0,1,15.58,7.22A21.4,21.4,0,0,1,440.88,248v27.26" transform="translate(-367.83 -174.14)"/><circle class="cls-4" cx="74.8" cy="8.94" r="8.94"/><circle class="cls-4" cx="97.31" cy="8.94" r="8.94"/><polygon class="cls-1" points="61.02 23.85 61.02 46.92 83.22 46.92 83.22 58.22 106.46 58.22 106.46 23.85 61.02 23.85"/><polygon class="cls-1" points="23.45 106.66 34.83 106.66 34.83 129.64 0 129.64 0 95.15 23.59 95.15 23.45 106.66"/></svg>